<svg height="512pt" viewBox="0 -26 512 512" width="512pt" xmlns="http://www.w3.org/2000/svg"><path d="m460.632812 195.171875c28.324219 0 51.367188-23.042969 51.367188-51.367187 0-28.324219-23.042969-51.367188-51.367188-51.367188h-5.976562c-4.140625 0-7.5 3.355469-7.5 7.5 0 4.140625 3.359375 7.5 7.5 7.5h5.976562c20.054688 0 36.367188 16.3125 36.367188 36.367188 0 20.054687-16.316406 36.367187-36.367188 36.367187h-46.671874l23.75-118.875c5.535156-27.710937-12.507813-54.761719-40.21875-60.296875-27.710938-5.539062-54.761719 12.503906-60.296876 40.21875l-10.234374 51.21875h-86.925782l6.21875-31.140625c5.535156-27.710937-12.503906-54.761719-40.21875-60.296875-27.707031-5.535156-54.761718 12.503906-60.296875 40.21875l-10.230469 51.21875h-55.570312c-28.328125 0-51.371094 23.042969-51.371094 51.367188 0 28.324218 23.042969 51.367187 51.371094 51.367187h35.046875l-13.949219 69.824219h-49.667968c-28.324219 0-51.367188 23.042968-51.367188 51.367187s23.042969 51.371094 51.367188 51.371094h29.144531l-6.222657 31.136719c-2.671874 13.378906-.796874 52.042968 40.21875 60.300781 41.019532 8.257813 57.628907-26.84375 60.296876-40.21875l27.761718-138.957031h86.925782l-14.53125 72.738281h-64.703126c-4.140624 0-7.5 3.355469-7.5 7.5 0 4.140625 3.359376 7.5 7.5 7.5h61.707032l-6.21875 31.136719c-5.535156 27.714844 12.429687 55.15625 40.21875 60.300781 42.886718 7.9375 57.625-26.84375 60.296875-40.21875l10.230469-51.21875h55.570312c28.328125 0 51.371094-23.046875 51.371094-51.371094s-23.042969-51.367187-51.371094-51.367187h-35.046875l13.949219-69.824219zm-136.667968-87.734375-14.53125 72.734375h-86.925782l14.53125-72.734375zm-272.597656 245.296875c-20.054688 0-36.367188-16.316406-36.367188-36.371094 0-20.050781 16.3125-36.367187 36.367188-36.367187h46.671874l-14.53125 72.738281zm108.730468 63.28125c-3.914062 19.601563-23.074218 32.480469-42.648437 28.445313-27.421875-5.648438-30.335938-33.203126-28.449219-42.648438l49.855469-249.5625c.808593-4.058594-1.824219-8.011719-5.886719-8.820312-4.058594-.8125-8.011719 1.820312-8.824219 5.882812l-6.164062 30.859375h-38.042969c-20.054688 0-36.371094-16.3125-36.371094-36.367187 0-20.054688 16.316406-36.367188 36.371094-36.367188h52.574219l-1.976563 9.886719c-.808594 4.0625 1.824219 8.011719 5.886719 8.824219s8.011719-1.824219 8.824219-5.886719l15.203125-76.105469c1.886719-9.445312 12.882812-33.324219 42.648437-28.445312 19.726563 3.230468 32.363282 23.046874 28.449219 42.648437zm45.464844-151.019531 13.949219-69.824219h86.925781l-13.949219 69.824219zm145.988281 151.019531c-1.886719 9.445313-14.234375 33.144531-42.648437 28.445313-28.414063-4.695313-30.335938-33.203126-28.449219-42.648438l71.449219-357.65625c3.441406-17.214844 15.390625-32.691406 42.652344-28.445312 19.75 3.074218 32.359374 23.046874 28.445312 42.648437zm80.511719-136.019531c20.054688 0 36.371094 16.316406 36.371094 36.367187 0 20.054688-16.316406 36.371094-36.371094 36.371094h-52.574219l14.53125-72.738281zm0 0"/></svg>