<svg xmlns="http://www.w3.org/2000/svg" viewBox="0 0 509.42 456.71"><defs><style>.cls-1{fill:#010101;}</style></defs><g id="Layer_2" data-name="Layer 2"><g id="Layer_1-2" data-name="Layer 1"><path class="cls-1" d="M506.43,129.23c-5.16-16.94-16.07-28.45-32.61-34.53A46.87,46.87,0,0,0,454.2,92c-5,.36-7.78,2.83-7.72,6.2s3.1,6,7.59,6.61a37.13,37.13,0,0,0,4.48.17,37.2,37.2,0,0,1,37.11,37.2c.12,19.82-16.49,36.88-36.77,37.34-13.79.32-27.59.12-41.39,0-6.54,0-7.24-.92-5.95-7.43,7.28-36.69,14.5-73.4,22.07-110,2.46-11.92,1.5-23.13-3.79-34a49.5,49.5,0,0,0-83.47-9.33,49.57,49.57,0,0,0-10.22,21.9c-2.93,14.5-5.79,29-8.73,43.52-1.42,6.94-2.15,7.55-9.29,7.56q-36.42,0-72.82,0c-7.93,0-8.28-.6-7-8.26,2-11.94,5.65-23.56,5.43-35.9C243.28,23.32,221.67.92,197.3,0c-25.32-.92-46,14.67-51.72,39.34-3.49,15.07-6.14,30.31-9.23,45.46-1.35,6.61-1.73,6.93-8.59,7-15.63,0-31.26-.13-46.89,0-16.27.2-30.06,6-40.89,18.51-19.81,22.89-13,60.44,13.62,74.87,8.23,4.46,16.79,6.92,26.24,6.62,9.3-.29,18.62-.14,27.93,0,6.06.07,6.92,1,5.8,6.72q-5.79,29.63-11.83,59.18c-1.2,5.89-2.21,6.64-8.53,6.67-14.63.06-29.26,0-43.89,0-20.14,0-40,14.08-46.43,32.77-7,20.44-.94,42.13,15.38,55.43A51.45,51.45,0,0,0,51.9,364.38c6.82,0,13.63-.06,20.45,0s7.73,1.12,6.46,8.11c-1.73,9.48-4.47,18.81-5.24,28.43-2.43,30.18,16.23,52.68,44.88,55.23,13.73,1.22,26.32-1.31,36.48-11.08,8.67-8.33,14.73-18.36,17.13-30.37q12.83-64.06,25.63-128.14c.26-1.3.61-2.6.78-3.91.57-4.49,3.23-6.17,7.56-6.09,5.32.09,10.64,0,16,0q28.94,0,57.86,0c8.08,0,8.9,1,7.37,8.62q-6,29.84-11.94,59.67c-1.35,6.71-2.06,7.28-8.95,7.3-18.12,0-36.24,0-54.36,0-6.65,0-9.18,1.65-9.22,5.77s3.05,6.35,9.45,6.38c17.12.06,34.25,0,51.37,0,7,0,7.58.75,6.29,7.53-1.55,8.17-3.34,16.29-4.85,24.46-4.62,25.08,9.56,50.38,33,57.4,16.05,4.8,32.12,4.42,46-6.57,10.85-8.59,16.76-20.41,19.45-33.89q4.15-20.77,8.33-41.57c1.33-6.58,2.24-7.33,9-7.36,15.46-.05,30.92.09,46.38,0,22.45-.19,38.71-10.31,48.33-30.72,8.61-18.25,3-42.93-12.24-56.12-10.43-9-22.26-13.51-36.07-13.15-8.8.22-17.62.1-26.43,0-6.66-.06-7.46-1-6.22-7.27q5.79-29.36,11.75-58.69c1.19-5.77,2.19-6.57,8.05-6.61,14.47-.07,28.95-.45,43.39.08,21.84.79,42.62-15.49,48.68-36.51.54-1.87.08-4.55,3-5.1v-16C506.51,133.76,507,131.09,506.43,129.23Zm-266.3-23.31q38.36.47,76.72,0c4.47,0,4.65,1.59,3.95,5-4.33,21.22-8.67,42.43-12.77,63.69-.58,3.05-1.78,3.66-4.55,3.64-13.12-.12-26.24-.06-39.36-.06s-26.24-.12-39.36.08c-3.64.06-3.93-.91-3.24-4.23,4.33-20.88,8.45-41.8,12.49-62.73C234.72,107.73,235.6,105.87,240.13,105.92Zm-160,244.52c-13.38-.48-27,1.83-40.1-1.68a34.84,34.84,0,0,1-26.2-35.45c.73-18.77,13.49-32.17,31.47-34.61a45.92,45.92,0,0,1,5.92-.7c14.93-.05,29.85,0,45,0-4.65,23.47-9.25,46.61-13.82,69.76C82.15,349.1,81.87,350.51,80.14,350.44Zm103.07-61.9c-8.3,41.54-16.41,83.11-25,124.59-5.48,26.45-35.42,38.37-56.48,22.53C89.3,426.31,85.08,412.92,88,398c10.2-52.8,20.87-105.5,31.41-158.23q8.7-43.58,17.54-87.11c.73-3.59.72-7-2.44-9.52-4.61-3.68-10.65-1.38-12.08,4.91-1.92,8.38-3.55,16.83-5,25.3-.64,3.59-1.79,5.2-5.94,5-13.09-.73-26.3,1.08-39.32-1-18.57-2.9-30.73-19.13-29.58-38.73,1-17.12,16-31.58,33.84-32.36,8.13-.36,16.28-.06,24.43-.06v-.19c8.81,0,17.62.08,26.43,0,2.7,0,3.66.7,2.85,3.41a50.61,50.61,0,0,0-1.12,5.34c-.88,4.83,1.38,8.75,5.52,9.6,4.62.95,8.22-1.37,9.38-6.63,1.95-8.89,3.58-17.85,5.38-26.77,3.29-16.38,6.22-32.85,10-49.11C164,21.6,182,10.47,202.19,14.63c18.68,3.86,30.9,22,27.18,41.67-6.61,35-13.73,69.82-20.68,104.71Q196,224.78,183.21,288.54Zm103.53-25.49c-13.13-.09-26.27,0-39.4,0-13.3,0-26.6-.07-39.9.05-2.85,0-3.66-.5-3-3.59q6.47-31.1,12.5-62.29c.55-2.82,1.32-3.91,4.34-3.9q39.64.16,79.3,0c2.91,0,3.64.6,3,3.66q-6.48,31.35-12.53,62.79C290.5,262.65,289.24,263.07,286.74,263.05Zm109.84,14.84c12.92.62,25.87-.75,38.78.9,15.11,1.94,28.46,15.46,30.1,30.69,1.83,16.91-7.8,33-22.84,38.44a48.72,48.72,0,0,1-16.07,2.54c-7.14.1-14.27,0-21.41,0-8,0-15.94-.07-23.91,0-2.63,0-4-.23-3.29-3.52q6.63-32.28,12.88-64.63C391.51,278.79,393,277.72,396.58,277.89Zm-10.84-47Q373,294.58,360.25,358.32c-3.5,17.52-7.1,35-10.4,52.57-4.34,23.14-25.43,36.21-47.92,29.89-18.43-5.18-26.14-25.12-23.41-40,5.21-28.47,11.09-56.82,16.76-85.2Q308,251.78,320.81,188.06q13.29-66.42,26.58-132.83c1.07-5.35,2.05-10.73,3.4-16,4-15.73,15.61-25.35,31.88-25.47C400,13.61,414.53,21,420,40.87c1,3.58.93,7.18,1.16,12.46-3.09,15.64-6.47,32.84-9.9,50Q398.51,167.12,385.74,230.85Z"/></g></g></svg>